<?xml version="1.0" encoding="UTF-8"?>
<!DOCTYPE svg PUBLIC "-//W3C//DTD SVG 1.1//EN" "http://www.w3.org/Graphics/SVG/1.1/DTD/svg11.dtd">
<!-- Creator: CorelDRAW 2021 (64 Bit) -->
<svg xmlns="http://www.w3.org/2000/svg" xml:space="preserve" width="2049.43mm" height="1121.66mm" version="1.1" style="shape-rendering:geometricPrecision; text-rendering:geometricPrecision; image-rendering:optimizeQuality; fill-rule:evenodd; clip-rule:evenodd"
viewBox="0 0 39889.88 21831.82"
 xmlns:xlink="http://www.w3.org/1999/xlink"
 xmlns:xodm="http://www.corel.com/coreldraw/odm/2003">
 <defs>
  <style type="text/css">
   <![CDATA[
    .fil1 {fill:#211B18}
    .fil2 {fill:#A4557B}
    .fil0 {fill:#ED7BB0}
   ]]>
  </style>
 </defs>
 <g id="Camada_x0020_1">
  <metadata id="CorelCorpID_0Corel-Layer"/>
  <g id="_2048359126128">
   <path class="fil0" d="M16483.34 4863.92c-87.55,0 -70.66,24.77 -70.66,-53.3 -2988.69,0 -3809.81,691.71 -4348.62,736.55 64.05,239.85 164.85,186.91 486.89,512.72 178.38,180.45 322.99,319.49 500.59,499 112.68,113.88 122.86,143.91 215.2,258.3 934.1,1157.18 1436.96,2115.28 2094.25,3429.86 286.83,573.64 542.35,1076.72 882.52,1590.17 70.73,106.75 147.85,198.17 224.61,301.5 1332.65,1793.91 2468.57,1081.95 3601.26,988.75 687.19,-56.55 1850.48,738.33 3185.47,-387.91 1341.37,-1131.63 2430.63,-5132.37 4644.19,-6877.53 129.78,-102.32 152.73,-165.91 316.47,-209.64 -87.45,-119.35 -256.04,-161.78 -413.99,-217.33 -158.78,-55.85 -325.03,-114.1 -514.03,-169.92 -1732.19,-511.57 -3874.65,-743.75 -5561.01,106.27 -1288.89,649.68 -950.12,626.25 -1613,1070.14 -952.32,-827.76 -2240.56,-1584.69 -3630.13,-1577.63z"/>
   <path class="fil0" d="M8276.1 5284.12c2372.26,552.67 3916.69,3091.84 5113.45,4987.77 564.29,893.96 559.26,1073.72 1373.17,2046.53 617.6,738.17 2009.9,1519.52 2983.29,1541.21 -49.64,-43.14 12.35,-18.69 -126.58,-83.84 -278.15,-130.45 -585.33,-98.65 -1227.24,-561.53 -1486.98,-1072.23 -1674.64,-2230.89 -2517.16,-3638.28 -729.12,-1217.99 -1007.49,-1917.48 -2033.69,-3069.53 -365.09,-409.88 -1176.91,-1252.74 -1723.85,-1380.17 830.43,-577.04 3580.88,-1210.03 4682.34,-1210.03 1869.72,0 2798.3,81.2 4416.91,1054.57 318.93,191.8 588.51,422.54 896.75,628.95 300.05,-200.93 539.75,-410.79 863.92,-609.16 2208.6,-1351.57 4531.31,-1290.87 6996.74,-675.17 379.57,94.79 760.44,223.77 1113.74,359.35 197.14,75.65 329.06,127.88 526.27,210.28l461.8 222.16c7.14,3.86 22.98,11.71 33.52,19.05 -663.18,177.08 -1699.65,1294.75 -2157.6,1893.41 -284.47,371.85 -595.16,807.48 -838.81,1213 -126.82,211.07 -254.6,414.32 -370.67,628.94 -70.85,131.01 -118.16,193.28 -193.13,332.97 -919.24,1712.77 -1660.9,3863.18 -3694.04,4513.22 -49.81,15.93 -147.3,35.73 -205.91,57.13 -116.4,42.52 -78.58,16.64 -168.37,94.68 975.2,-21.73 2306.36,-771.21 2958.95,-1512.95 626.92,-712.55 876.54,-1212.43 1357.51,-2009.57l1357.31 -2062.35c315.39,-429.4 646.12,-867.8 1020.9,-1241.36 775.38,-772.83 1638.46,-1484.45 2775.23,-1749.28 -234.51,-320.07 -2326.08,-1244.72 -2794.47,-1414.37 -2618.94,-948.62 -5031.86,-1146.13 -7533.82,240.31 -798.11,442.27 -1293.59,1029.76 -1509.08,1174.06l-2052.11 -1472.82c-2388.13,-1054.78 -4607.13,-804.96 -6990.8,58.44 -470.56,170.44 -2559.51,1093.69 -2794.47,1414.37z"/>
   <path class="fil0" d="M20534.35 3811.02l105.23 0c0,-797.86 644.83,-1736.95 1401.71,-2123.2 438.55,-223.82 798.72,-299.37 1441.06,-295.07 1534.66,10.23 1322.43,-1632.27 -309.99,-1362.89 -547.28,90.31 -1101.6,383.75 -1465.31,692.41 -462.56,392.52 -650.39,670.15 -910.53,1193.89 -307,618.11 -262.18,1002.3 -262.18,1894.86z"/>
   <path class="fil0" d="M15694.19 706.99c0,441.09 561.12,689.53 1050.59,685.56 1019.25,-8.26 1818.16,310.75 2359.78,1112.5 204.09,302.11 472.26,832.5 482.8,1305.97 171.44,-119.13 105.23,-132.76 105.23,-789.16 0,-1201.69 -940.55,-2379.81 -2035.9,-2804.28 -871.19,-337.61 -1962.5,-286.48 -1962.5,489.42z"/>
   <g>
    <path class="fil1" d="M13241.74 15793.48l0 5031.48c0,794.75 -207.99,-127.96 -277.79,862.55 1525.34,0 1093.97,-151.18 914.22,-523.64 -223.06,-462.15 -146.78,98.13 -180.2,-759.21 -42.37,-1086.92 6.77,-2481.67 6.77,-3604.87l802.45 2491.9c171.75,530.28 658.66,2305.59 864.34,2539.58 424.47,-175.96 631.65,-1522.74 924.64,-2446.02l834.76 -2585.47 1.92 3884.37c-98.07,1162.88 -208.73,-4.07 -279.71,1003.35l1388.98 0c-202.56,-1177.8 -277.79,696.05 -277.79,-3306.41 0,-4413.63 82.45,-2314.31 277.79,-3450.14 -264.95,-231.09 -467.94,-143.77 -925.97,-143.77 -287.92,0 -413.23,666.3 -516.86,1066.47 -242.14,935.01 -1049.79,3297.65 -1149.93,3965.01 -302.23,-343.77 -666.38,-1750.09 -865.47,-2394.06 -150.14,-485.62 -212.59,-814.92 -368.09,-1297.44 -157.33,-488.14 -282.22,-896.87 -433.23,-1339.98l-1018.61 0c48.11,897.48 277.79,399.35 277.79,1006.28z"/>
    <path class="fil1" d="M1666.79 21112.49c-739.48,0 -555.66,21.44 -555.58,-2587.62 0.03,-1006.28 0,-2012.6 0,-3018.88 703.96,-254.61 1407.67,-230.68 1971.83,532.73 964.48,1305.02 703.52,5073.78 -1416.25,5073.78zm-1666.79 575.02c328.92,244.99 87.8,71.03 393.39,85.17 1079.29,49.96 2139.51,298.29 3128.3,-799.47 1255.71,-1394.14 1377.43,-5003.4 -412.45,-5981.49 -741.21,-405.02 -2171.48,-204.52 -3109.24,-204.52 86.2,1607.87 277.82,-1350.21 277.82,3450.18 0,527.18 56.09,2376.83 -56.54,2787.34 -187.89,684.72 -149.88,-350.25 -221.28,662.8z"/>
    <path class="fil1" d="M34148.68 17759.27l-740.79 0 0 -2443.86 833.4 0c501.67,0 740.79,530.44 740.79,1293.81 0,567.89 -420.48,1150.05 -833.4,1150.05zm-1759.37 3737.67l1296.4 0c-88.72,-1655.14 -277.82,1330.32 -277.82,-3162.65 472.79,16.34 604.93,506.52 1055.8,1523.56 810.98,1829.23 684.3,1639.09 1629.6,1639.09 354.04,0 33.7,44.13 277.79,-143.77 -248.1,-525.67 -84.07,255.58 -873.98,-1374.58 -275.35,-568.26 -559.94,-1104.37 -792.82,-1644.3 1314.35,-475.39 1243.01,-2254.21 770.5,-3064.97 -568.23,-975.07 -1925.97,-672.7 -3085.48,-672.7 86.17,1607.87 277.79,-1350.21 277.79,3450.18 0,626.41 1.18,1250.41 5.01,1876.62 11.23,1835.66 -208.44,518.3 -282.8,1573.52z"/>
    <path class="fil1" d="M10371.16 17949.84l-555.58 0 0 -2443.86 925.97 0c630.18,0 1086.15,2443.86 -370.39,2443.86zm-1296.4 -2156.37l0 4887.76c0,809.13 -1272.25,1006.28 1018.61,1006.28 -69.98,-992.91 -261.6,151.39 -286.16,-1280.81 -10.34,-601.59 8.37,-1270.18 8.37,-1881.83 448.04,57.86 604.45,569.97 963.2,1379.79 283.83,640.71 578.36,1143.77 796.18,1782.85l1111.21 0 0 -431.26c-458.96,-59.29 -432.39,-318.62 -873.03,-1232.32 -264.64,-548.7 -469.38,-961.7 -701.16,-1499.07 1460.06,-528.08 1456.38,-3737.67 -463,-3737.67 -3040.86,0 -1574.22,59.66 -1574.22,1006.28z"/>
    <path class="fil1" d="M5000.38 21687.51l3055.8 0c38.82,-724.41 185.18,-694.87 185.18,-1581.3 -604.95,78.12 -511.98,862.51 -925.97,862.51l-1296.4 0 0 -2443.86c1551.12,0 214.37,397.07 1203.79,431.26l0 -1581.3c-989.42,34.23 347.32,431.26 -1203.79,431.26l0 -2300.09c1231.54,0 1248.49,-203.87 1586.76,411.74 233.06,424.21 0.71,392.71 450.43,450.78l0 -1581.3 -3055.8 0c86.2,1607.87 277.82,-1350.21 277.82,3450.18 0,4841.63 -177.28,2023.69 -277.82,3450.14z"/>
    <path class="fil1" d="M36926.69 15602.9l0 5031.48c0,794.75 -207.99,-127.95 -277.82,862.56l3055.8 0c38.82,-724.41 185.21,-694.87 185.21,-1581.3 -604.98,78.12 -512.01,862.51 -926,862.51l-1296.4 0 0 -2443.86 740.79 0c89.14,518.26 8.45,384.52 370.4,431.26 139.62,-385.74 92.61,-494.7 92.61,-1150.05 0,-549.64 28.43,-52.32 -92.61,-431.26 -361.94,46.74 -281.26,-87 -370.4,431.26l-740.79 0 0 -2300.09c1231.56,0 1248.49,-203.87 1586.76,411.74 233.06,424.21 0.71,392.71 450.43,450.78l0 -1581.3 -3055.8 0c48.11,897.48 277.82,399.35 277.82,1006.28z"/>
    <path class="fil1" d="M27018.53 19771.87c-471.19,60.88 -258.92,105.5 -520.85,628.98 -766.83,1532.73 -2627.55,-244.25 -2627.55,-1922.79 0,-944.3 -19.92,-1828.53 391.87,-2554.33 454.29,-800.74 1677.03,-1142.92 2181.43,-290.51 311.94,527.14 102.71,627.47 575.11,688.47 0,-722.5 83.26,-643.69 92.61,-1293.81 -295.24,-122.37 -176.6,-140.14 -518.12,-345.68 -2233.27,-1344.18 -4551.34,2077.11 -3301.17,5268.65 206.97,528.4 431.29,797.4 747.41,1139.82 669.6,725.35 1935.82,815.74 2511.08,398.25 300.26,-217.89 458.33,-1029.35 468.2,-1717.04z"/>
    <path class="fil1" d="M20742.31 16512.27c276.9,314.96 621.28,1798.01 648.21,2300.13l-1203.79 0c115.68,-771.03 439.88,-1529.14 555.58,-2300.13zm-2222.37 5175.25l1111.19 0c-47.61,-888.14 -45.2,-955.46 370.39,-2300.09l1666.79 0c39.35,262.1 370.4,1434.36 370.4,1437.54 0,541.45 -60.92,271.84 -92.61,862.55l1296.4 0 0 -431.26c-399.45,-144.5 -392.37,-189.41 -701.84,-1354.33 -171.25,-644.66 -291.15,-1088.27 -470.32,-1713.66 -179.59,-626.78 -295.48,-1087.45 -468.96,-1715.86 -146.52,-530.85 -412.68,-1322.7 -488.67,-1828.98l-370.4 0 -1797.17 6266.66c-309.13,628.98 -300.7,53.51 -425.2,777.43z"/>
    <path class="fil1" d="M29426.12 16321.69l185.19 0c39.87,743.4 444.99,1563.05 555.61,2300.13l-1203.79 0c50.24,-937.13 417.51,-1451.35 463,-2300.13zm-2222.4 5175.25l1111.21 0c0,-1579.23 188.26,-1086.48 370.39,-2300.09l1666.79 0c701.42,2269.49 329.13,1342.14 277.79,2300.09l1389 0c-170.3,-990.1 -176.65,273.8 -681.42,-1529.76 -201.98,-721.64 -1323.72,-5161.88 -1633.59,-5514.33 -375.88,155.83 -400.9,592.87 -687.35,1664.31 -176.18,658.97 -1220.3,4471.09 -1457.12,4781.93 -259.34,340.38 -273.2,118.13 -355.72,597.84z"/>
   </g>
   <path class="fil2" d="M16483.34 4863.92c0,-78.07 16.9,-53.3 -70.66,-53.3 0,78.07 -16.9,53.3 70.66,53.3z"/>
  </g>
 </g>
</svg>
