<?xml version="1.0" encoding="UTF-8"?>
<!DOCTYPE svg PUBLIC "-//W3C//DTD SVG 1.1//EN" "http://www.w3.org/Graphics/SVG/1.1/DTD/svg11.dtd">
<!-- Creator: CorelDRAW 2021 (64 Bit) -->
<svg xmlns="http://www.w3.org/2000/svg" xml:space="preserve" width="3326.53mm" height="712.067mm" version="1.1" style="shape-rendering:geometricPrecision; text-rendering:geometricPrecision; image-rendering:optimizeQuality; fill-rule:evenodd; clip-rule:evenodd"
viewBox="0 0 181029.11 38750.6"
 xmlns:xlink="http://www.w3.org/1999/xlink"
 xmlns:xodm="http://www.corel.com/coreldraw/odm/2003">
 <defs>
  <style type="text/css">
   <![CDATA[
    .fil1 {fill:#211B18}
    .fil2 {fill:#A4557B}
    .fil0 {fill:#ED7BB0}
   ]]>
  </style>
 </defs>
 <g id="Camada_x0020_1">
  <metadata id="CorelCorpID_0Corel-Layer"/>
  <g id="_2048359786704">
   <path class="fil0" d="M22946.91 13599.2c-244.8,0 -197.55,69.26 -197.55,-149.02 -8356.17,0 -10651.97,1933.96 -12158.47,2059.35 179.08,670.61 460.91,522.58 1361.31,1433.52 498.73,504.53 903.06,893.26 1399.62,1395.16 315.06,318.39 343.5,402.37 601.68,722.18 2611.7,3235.39 4017.65,5914.18 5855.39,9589.67 801.95,1603.85 1516.37,3010.44 2467.47,4446 197.77,298.47 413.38,554.06 627.99,842.98 3725.99,5015.66 6901.97,3025.07 10068.89,2764.47 1921.33,-158.11 5173.82,2064.31 8906.35,-1084.57 3750.38,-3163.97 6795.89,-14349.78 12984.84,-19229.13 362.84,-286.08 427.02,-463.87 884.84,-586.13 -244.51,-333.7 -715.88,-452.32 -1157.49,-607.64 -443.95,-156.15 -908.77,-319.02 -1437.2,-475.09 -4843.08,-1430.31 -10833.27,-2079.48 -15548.22,297.13 -3603.66,1816.46 -2656.48,1750.95 -4509.84,2992.05 -2662.61,-2314.36 -6264.47,-4430.7 -10149.62,-4410.94z"/>
   <path class="fil0" d="M-0 14774.04c6632.69,1545.23 10950.81,8644.58 14296.86,13945.49 1577.71,2499.45 1563.66,3002.06 3839.28,5721.96 1726.77,2063.88 5619.55,4248.49 8341.07,4309.11 -138.8,-120.63 34.53,-52.24 -353.92,-234.41 -777.68,-364.72 -1636.54,-275.82 -3431.28,-1570 -4157.5,-2997.89 -4682.17,-6237.41 -7037.81,-10172.38 -2038.58,-3405.43 -2816.89,-5361.16 -5686.06,-8582.21 -1020.77,-1145.98 -3290.55,-3502.58 -4819.77,-3858.87 2321.82,-1613.36 10011.89,-3383.16 13091.51,-3383.16 5227.6,0 7823.87,227.03 12349.4,2948.52 891.72,536.26 1645.42,1181.38 2507.25,1758.51 838.93,-561.78 1509.12,-1148.53 2415.47,-1703.17 6175.11,-3778.9 12669.25,-3609.2 19562.42,-1887.72 1061.26,265.02 2126.14,625.65 3113.93,1004.72 551.19,211.52 920.03,357.54 1471.43,587.92l1291.17 621.15c19.97,10.8 64.25,32.73 93.73,53.25 -1854.2,495.1 -4752.1,3620.04 -6032.51,5293.86 -795.36,1039.66 -1664.02,2257.65 -2345.26,3391.46 -354.59,590.13 -711.84,1158.41 -1036.37,1758.46 -198.1,366.31 -330.36,540.39 -539.97,930.96 -2570.12,4788.79 -4643.77,10801.2 -10328.29,12618.66 -139.27,44.53 -411.83,99.9 -575.7,159.74 -325.44,118.88 -219.7,46.53 -470.75,264.73 2726.61,-60.75 6448.43,-2156.25 8273.03,-4230.1 1752.83,-1992.26 2450.75,-3389.88 3795.5,-5618.63l3794.96 -5766.2c881.8,-1200.57 1806.5,-2426.31 2854.37,-3470.77 2167.92,-2160.79 4581.02,-4150.42 7759.37,-4890.87 -655.68,-894.89 -6503.55,-3480.15 -7813.16,-3954.49 -7322.39,-2652.27 -14068.75,-3204.49 -21064.07,671.9 -2231.46,1236.55 -3616.79,2879.14 -4219.3,3282.59l-5737.56 -4117.9c-6677.06,-2949.1 -12881.23,-2250.6 -19545.82,163.41 -1315.65,476.55 -7156.23,3057.89 -7813.16,3954.49z"/>
   <path class="fil0" d="M34273.28 10655.35l294.21 0c0,-2230.76 1802.91,-4856.38 3919.09,-5936.32 1226.17,-625.78 2233.17,-837.02 4029.12,-825.01 4290.81,28.6 3697.43,-4563.71 -866.7,-3810.55 -1530.17,252.51 -3079.99,1072.93 -4096.92,1935.93 -1293.3,1097.45 -1818.46,1873.71 -2545.77,3338.04 -858.36,1728.2 -733.02,2802.38 -733.02,5297.91z"/>
   <path class="fil0" d="M20740.51 1976.7c0,1233.25 1568.86,1927.87 2937.38,1916.78 2849.74,-23.1 5083.46,868.83 6597.79,3110.47 570.61,844.68 1320.4,2327.62 1349.88,3651.4 479.34,-333.07 294.21,-371.18 294.21,-2206.45 0,-3359.85 -2629.71,-6653.79 -5692.23,-7840.59 -2435.78,-943.92 -5487.03,-800.99 -5487.03,1368.39z"/>
   <path class="fil1" d="M106522.66 15696.76l0 14067.7c0,2222.06 -581.54,-357.76 -776.68,2411.64 4264.75,0 3058.66,-422.7 2556.09,-1464.05 -623.67,-1292.13 -410.4,274.35 -503.82,-2122.71 -118.45,-3038.97 18.94,-6938.6 18.94,-10078.97l2243.59 6967.2c480.19,1482.63 1841.57,6446.29 2416.65,7100.5 1186.78,-491.97 1766.05,-4257.49 2585.23,-6838.91l2333.94 -7228.79 5.35 10860.45c-274.18,3251.35 -583.59,-11.39 -782.04,2805.29l3883.49 0c-566.35,-3293.04 -776.68,1946.11 -776.68,-9244.51 0,-12340.23 230.52,-6470.67 776.68,-9646.36 -740.8,-646.12 -1308.32,-401.96 -2588.96,-401.96 -805.01,0 -1155.38,1862.94 -1445.12,2981.78 -677.02,2614.22 -2935.15,9220.02 -3215.13,11085.92 -845.01,-961.15 -1863.15,-4893.13 -2419.81,-6693.64 -419.79,-1357.76 -594.38,-2278.46 -1029.14,-3627.56 -439.9,-1364.82 -789.08,-2507.58 -1211.29,-3746.5l-2847.96 0c134.52,2509.29 776.68,1116.56 776.68,2813.5z"/>
   <path class="fil1" d="M74159.87 30568.37c-2067.54,0 -1553.58,59.93 -1553.37,-7234.83 0.08,-2813.5 0,-5627.1 0,-8440.6 1968.24,-711.86 3935.74,-644.98 5513.11,1489.47 2696.63,3648.74 1966.99,14185.96 -3959.74,14185.96zm-4660.24 1607.73c919.65,684.98 245.49,198.59 1099.89,238.12 3017.64,139.68 5981.92,834 8746.51,-2235.28 3510.89,-3897.92 3851.2,-13989.19 -1153.17,-16723.84 -2072.38,-1132.4 -6071.31,-571.84 -8693.23,-571.84 241.01,4495.5 776.76,-3775.1 776.76,9646.47 0,1473.97 156.83,6645.45 -158.08,7793.22 -525.33,1914.44 -419.05,-979.27 -618.68,1853.14z"/>
   <path class="fil1" d="M164977.09 21192.98l-2071.2 0 0 -6832.86 2330.12 0c1402.63,0 2071.2,1483.08 2071.2,3617.41 0,1587.79 -1175.63,3215.45 -2330.12,3215.45zm-4919.09 10450.28l3624.64 0c-248.06,-4627.67 -776.76,3719.5 -776.76,-8842.56 1321.9,45.69 1691.34,1416.21 2951.96,4259.78 2267.45,5114.39 1913.27,4582.78 4556.25,4582.78 989.88,0 94.23,123.39 776.69,-401.96 -693.68,-1469.75 -235.07,714.6 -2443.58,-3843.23 -769.86,-1588.81 -1565.55,-3087.73 -2216.66,-4597.37 3674.84,-1329.16 3475.37,-6302.61 2154.28,-8569.45 -1588.74,-2726.22 -5384.89,-1880.83 -8626.81,-1880.83 240.94,4495.5 776.68,-3775.1 776.68,9646.47 0,1751.4 3.3,3496.07 14.02,5246.9 31.41,5132.4 -582.79,1449.13 -790.7,4399.46z"/>
   <path class="fil1" d="M98496.69 21725.82l-1553.37 0 0 -6832.87 2588.96 0c1761.94,0 3036.79,6832.87 -1035.6,6832.87zm-3624.65 -6029.06l0 13665.85c0,2262.28 -3557.12,2813.49 2847.96,2813.49 -195.66,-2776.12 -731.4,423.27 -800.09,-3581.07 -28.92,-1682.01 23.41,-3551.33 23.41,-5261.49 1252.69,161.78 1690.01,1593.6 2693.03,3857.81 793.56,1791.39 1617.07,3197.91 2226.06,4984.74l3106.88 0 0 -1205.76c-1283.21,-165.77 -1208.95,-890.85 -2440.94,-3445.48 -739.91,-1534.13 -1312.36,-2688.85 -1960.39,-4191.3 4082.23,-1476.48 4071.96,-10450.28 -1294.52,-10450.28 -8502.05,0 -4401.4,166.8 -4401.4,2813.5z"/>
   <path class="fil1" d="M83480.36 32176.09l8543.81 0c108.54,-2025.41 517.76,-1942.81 517.76,-4421.22 -1691.41,218.41 -1431.47,2411.53 -2588.96,2411.53l-3624.65 0 0 -6832.87c4336.82,0 599.37,1110.18 3365.73,1205.76l0 -4421.22c-2766.35,95.7 971.09,1205.76 -3365.73,1205.76l0 -6430.91c3443.3,0 3490.71,-570.01 4436.48,1151.19 651.63,1186.06 1.98,1097.99 1259.37,1260.34l0 -4421.22 -8543.81 0c241.01,4495.5 776.76,-3775.1 776.76,9646.47 0,13536.88 -495.67,5658.09 -776.76,9646.36z"/>
   <path class="fil1" d="M172744.22 15163.91l0 14067.7c0,2222.06 -581.54,-357.75 -776.76,2411.65l8543.81 0c108.55,-2025.41 517.84,-1942.81 517.84,-4421.22 -1691.48,218.41 -1431.54,2411.53 -2589.04,2411.53l-3624.65 0 0 -6832.87 2071.2 0c249.23,1449.02 23.63,1075.09 1035.6,1205.77 390.36,-1078.5 258.92,-1383.16 258.92,-3215.46 0,-1536.75 79.48,-146.29 -258.92,-1205.76 -1011.97,130.68 -786.37,-243.25 -1035.6,1205.76l-2071.2 0 0 -6430.9c3443.37,0 3490.71,-570.02 4436.48,1151.19 651.63,1186.05 1.98,1097.98 1259.37,1260.34l0 -4421.22 -8543.81 0c134.53,2509.29 776.76,1116.55 776.76,2813.49z"/>
   <path class="fil1" d="M145041.67 26820.08c-1317.42,170.22 -723.91,294.98 -1456.27,1758.58 -2144.01,4285.41 -7346.45,-682.92 -7346.45,-5375.99 0,-2640.2 -55.7,-5112.46 1095.64,-7141.74 1270.15,-2238.81 4688.86,-3195.52 6099.12,-812.24 872.16,1473.85 287.17,1754.36 1607.97,1924.92 0,-2020.05 232.79,-1799.7 258.92,-3617.41 -825.48,-342.14 -493.76,-391.82 -1448.63,-966.5 -6244.07,-3758.24 -12725.26,5807.46 -9229.85,14730.79 578.67,1477.38 1205.86,2229.47 2089.7,3186.85 1872.17,2028.03 5412.41,2280.74 7020.83,1113.48 839.5,-609.21 1281.46,-2877.98 1309.05,-4800.74z"/>
   <path class="fil1" d="M127493.76 17706.44c774.19,880.59 1737.06,5027.12 1812.36,6431.02l-3365.73 0c323.43,-2155.76 1229.87,-4275.39 1553.37,-6431.02zm-6213.61 14469.65l3106.81 0c-133.13,-2483.19 -126.38,-2671.42 1035.6,-6430.9l4660.24 0c110.02,732.82 1035.6,4010.37 1035.6,4019.26 0,1513.85 -170.34,760.05 -258.92,2411.64l3624.64 0 0 -1205.76c-1116.84,-404.01 -1097.03,-529.57 -1962.29,-3786.6 -478.79,-1802.44 -814.03,-3042.73 -1315,-4791.28 -502.13,-1752.42 -826.15,-3040.45 -1311.18,-4797.43 -409.66,-1484.22 -1153.83,-3698.19 -1366.29,-5113.71l-1035.6 0 -5024.77 17521.16c-864.31,1758.58 -840.75,149.6 -1188.84,2173.64z"/>
   <path class="fil1" d="M151773.12 17173.6l517.77 0c111.48,2078.51 1244.17,4370.18 1553.44,6431.02l-3365.72 0c140.47,-2620.15 1167.33,-4057.88 1294.52,-6431.02zm-6213.68 14469.66l3106.88 0c0,-4415.41 526.35,-3037.72 1035.6,-6430.91l4660.24 0c1961.12,6345.34 920.23,3752.54 776.69,6430.91l3883.56 0c-476.15,-2768.26 -493.91,765.52 -1905.2,-4277.1 -564.73,-2017.66 -3701.04,-14432.28 -4567.4,-15417.7 -1050.94,435.69 -1120.88,1657.63 -1921.78,4653.31 -492.59,1842.43 -3411.89,12500.87 -4074.01,13369.96 -725.09,951.69 -763.84,330.29 -994.58,1671.53z"/>
   <path class="fil2" d="M22946.91 13599.2c0,-218.28 47.24,-149.02 -197.55,-149.02 0,218.28 -47.24,149.02 197.55,149.02z"/>
  </g>
 </g>
</svg>
